<svg xmlns="http://www.w3.org/2000/svg" viewBox="0 0 359 359">
	<path d="M258.521,189.761c-3.665,-9.706 -13.9,-13.89 -23.847,-11.515c-0.993,0.24 -1.99,0.519 -2.972,0.89c-2.765,4.188 -0.037,0.104 -0.037,0.104l-87.203,32.921c0.031,0.079 0.053,0.135 0.05,0.125c-21.5,8.119 -45.31,1.847 -60.194,-13.753c-4.791,-5.022 -8.672,-11.025 -11.256,-17.868c-2.528,-6.707 -3.597,-13.604 -3.425,-20.366c0.54,-21.578 14.034,-41.778 35.672,-49.947l0.003,0l156.028,-58.909c-39.056,-25.094 -89.072,-32.035 -135.838,-14.378c-78.471,29.625 -118.068,117.256 -88.44,195.725c7.45,19.737 18.575,37.006 32.297,51.343l178.54,-67.406c10,-4.519 14.51,-16.672 10.622,-26.966" fill="#0c84cd"/>
	<path d="M105.439,169.809c4.031,10.678 16.019,14.703 26.819,10.625l87.268,-32.947l0.132,-0.05l0.015,-0.006c21.535,-8.063 45.291,-1.91 60.128,13.781c4.716,4.984 8.538,10.928 11.097,17.694c2.56,6.784 3.632,13.759 3.425,20.597c-0.631,21.49 -14.112,41.578 -35.675,49.718c0.01,0.019 -0.018,-0.059 -0.068,-0.19l-158.404,59.803c38.563,23.447 87.116,29.575 132.61,12.4c78.472,-29.628 118.069,-117.256 88.444,-195.728c-7.032,-18.622 -17.357,-35.019 -30.022,-48.86l-174.013,65.697c-10.803,4.082 -15.79,16.788 -11.756,27.466" fill="#409ce7"/>
	<path d="M55.222,287.09c-26.675,-30.607 -42.203,-71.029 -40.406,-114.7c1.803,-43.894 20.594,-84.457 52.906,-114.219c30.609,-28.194 69.884,-43.497 111.256,-43.497c2.3,0 4.607,0.047 6.919,0.141c33.303,1.368 64.675,12.534 90.878,31.943l16.144,-5.987c-29.95,-24.731 -66.938,-38.997 -106.419,-40.619c-47.825,-1.944 -93.522,14.803 -128.725,47.222c-35.194,32.419 -55.659,76.603 -57.622,124.416c-1.875,45.559 13.553,87.878 40.385,120.662l14.684,-5.362Z" fill="#2a3137"/>
	<path d="M319.08,67.361l-14.54,5.404c26.843,31.575 40.646,71.481 38.934,113.131l0,0.003c-1.803,43.894 -20.594,84.456 -52.909,114.216c-32.31,29.762 -74.285,45.159 -118.172,43.356c-33.244,-1.366 -63.785,-12.588 -88.972,-30.691l-16.4,5.969c28.825,23.212 65.031,37.753 104.765,39.387c2.522,0.104 5.032,0.157 7.535,0.157c45.059,0 87.847,-16.669 121.19,-47.378c35.194,-32.419 55.66,-76.604 57.625,-124.413c1.791,-43.594 -12.037,-85.416 -39.056,-119.141" fill="#2a3137"/>
</svg>
